<?xml version="1.0" encoding="utf-8"?>
<!-- Generator: Adobe Illustrator 16.0.0, SVG Export Plug-In . SVG Version: 6.00 Build 0)  -->
<!DOCTYPE svg PUBLIC "-//W3C//DTD SVG 1.1//EN" "http://www.w3.org/Graphics/SVG/1.1/DTD/svg11.dtd">
<svg version="1.1" id="section1" xmlns="http://www.w3.org/2000/svg" xmlns:xlink="http://www.w3.org/1999/xlink" x="0px" y="0px"
	 width="526px" height="212px" viewBox="0 0 526 212" enable-background="new 0 0 526 212" xml:space="preserve">
<g>
	<path fill="#FFFFFF" d="M65.59,43.53H53.238v10.525h12.353L65.59,43.53L65.59,43.53z M61.159,50.566h-3.711V47.02h3.711V50.566z"/>
	<path fill="#FFFFFF" d="M49.803,72.281H84.26v2.326h6.537V25.029H43.544v49.579h6.26V72.281z M49.803,30.956h26.756l-2.603,2.604
		c1.44,0.775,3.101,1.938,4.266,2.936h-5.983c-0.111-1.552-0.167-3.103-0.222-4.709h-5.428c0.109,1.605,0.165,3.158,0.276,4.709
		H51.853v4.653h15.4c0.498,5.484,1.218,10.524,2.381,14.513c-0.887,0.997-1.772,1.938-2.769,2.77l-0.111-2.77
		c-5.761,0.775-11.522,1.439-15.566,1.883l0.61,4.819c3.654-0.609,7.976-1.219,12.407-1.883c-0.554,0.388-1.163,0.775-1.772,1.108
		c1.108,0.887,2.88,2.992,3.601,3.989c2.105-1.33,3.988-2.936,5.761-4.709c1.108,1.828,2.493,3.103,4.154,3.656
		c3.657,1.663,6.538-0.443,7.423-7.256c-1.108-0.609-3.101-2.105-4.1-3.103c-0.221,3.213-0.665,5.374-1.273,5.151
		c-0.997-0.222-1.828-1.273-2.549-2.937c2.493-3.655,4.487-7.866,5.817-12.685l-5.042-0.998c-0.665,2.493-1.495,4.765-2.603,6.924
		c-0.443-2.492-0.775-5.374-1.053-8.476h9.917v-4.653h-2.661l2.217-2.327c-0.998-1.052-2.88-2.327-4.652-3.213h6.868v35.453H49.803
		V30.956z"/>
	<path fill="#FFFFFF" d="M103.537,72.004c4.596-1.772,10.359-3.988,15.953-6.205v2.494c0,0.609-0.221,0.831-0.997,0.831
		c-0.665,0.056-3.102,0.056-5.263-0.056c0.774,1.496,1.606,3.602,1.938,5.207c3.657,0,6.26-0.056,8.198-0.831
		c1.994-0.887,2.548-2.161,2.548-4.986v-3.711c5.152,2.381,10.525,5.317,13.959,7.478l3.878-4.985
		c-2.604-1.44-6.26-3.323-10.026-5.207c1.329-1.274,2.825-2.77,4.098-4.265l-5.207-3.213c-1.051,1.55-2.658,3.435-4.21,5.096
		c-0.831-0.388-1.662-0.72-2.493-1.108v-8.697h-6.427v10.359c-1.717,0.609-3.434,1.163-5.151,1.772l2.603-2.105
		c-1.219-1.496-3.711-3.545-5.706-4.819l-4.322,3.378c1.664,1.275,3.713,2.992,4.875,4.432c-4.321,1.44-8.254,2.77-11.245,3.656
		L103.537,72.004z"/>
	<path fill="#FFFFFF" d="M147.688,48.239v-5.374h-28.474c0.553-0.942,0.998-1.828,1.496-2.771h21.937v-5.041H122.76
		c0.276-0.887,0.61-1.717,0.887-2.603h21.216v-5.263h-19.831c0.332-1.385,0.608-2.714,0.83-4.043l-6.924-0.609
		c-0.167,1.551-0.443,3.102-0.775,4.652h-17.561v5.263h16.175c-0.222,0.887-0.498,1.717-0.831,2.603h-12.519v5.041h10.137
		c-0.499,0.943-1.053,1.829-1.661,2.771H97.5v5.374h10.192c-2.992,3.157-6.759,6.093-11.3,8.419
		c1.662,0.831,3.933,2.991,4.931,4.486c6.092-3.546,10.856-7.977,14.513-12.907h13.461c3.823,5.65,9.307,10.137,15.732,12.686
		c0.942-1.663,2.826-4.211,4.321-5.374c-4.875-1.496-9.306-4.1-12.574-7.313h10.912V48.239z"/>
	<path fill="#FFFFFF" d="M180.869,31.399c0.222-3.324,0.334-6.315,0.387-8.642h-7.588c-0.222,9.363,0.831,34.18-21.661,46.2
		c2.216,1.496,4.321,3.602,5.484,5.374c11.523-6.758,17.339-16.784,20.386-26.534c3.214,9.527,9.362,20.33,21.66,26.202
		c0.887-1.884,2.77-4.1,4.819-5.706C185.024,59.762,181.644,38.877,180.869,31.399z"/>
	<path fill="#FFFFFF" d="M207.568,57.989h39.277v2.27h-15.512v4.376h4.157l-2.605,1.938c1.774,1.551,3.823,3.823,4.709,5.429
		l4.322-3.323c-0.775-1.219-2.272-2.715-3.713-4.044h8.643v4.432c0,0.554-0.221,0.665-0.776,0.665c-0.498,0-2.271,0-3.822-0.056
		c0.666,1.385,1.33,3.212,1.606,4.653c2.937,0,5.208,0,6.815-0.665c1.771-0.72,2.159-1.884,2.159-4.432v-4.598h4.487v-4.376h-4.487
		v-2.27h6.482v-4.653h-51.741V57.989z"/>
	<polygon fill="#FFFFFF" points="229.894,31.455 214.05,31.455 214.05,35.332 252.884,35.332 252.884,31.455 236.54,31.455 
		236.54,29.571 257.757,29.571 257.757,25.472 236.54,25.472 236.54,22.702 229.894,22.702 229.894,25.472 209.287,25.472 
		209.287,29.571 229.894,29.571 	"/>
	<polygon fill="#FFFFFF" points="212.666,48.239 212.666,51.729 253.881,51.729 253.881,48.239 236.43,48.239 236.43,46.466 
		249.005,46.466 249.005,43.143 216.877,43.143 216.877,46.466 229.949,46.466 229.949,48.239 	"/>
	<path fill="#FFFFFF" d="M229.783,71.837V59.762h-18.171v13.793h5.651v-1.717H229.783z M217.263,63.861h6.703v3.823h-6.703V63.861z"
		/>
	<path fill="#FFFFFF" d="M251.054,46.079l5.54,0.887c0.777-2.382,1.662-6.149,2.328-9.417l-4.598-0.721l-0.997,0.166H209.01v4.432
		h42.876C251.608,43.199,251.33,44.804,251.054,46.079z"/>
	<path fill="#FFFFFF" d="M48.585,130.169l-2.549,0.609c0.831,1.495,1.663,3.489,1.995,4.765l2.603-0.776
		C50.358,133.494,49.471,131.553,48.585,130.169z"/>
	<path fill="#FFFFFF" d="M88.359,110.503H77.556c0.666-0.997,1.44-2.104,2.161-3.268l-3.546-0.887
		c-0.444,1.219-1.384,2.824-2.217,4.154H69.08v-4.265h14.957v-2.715H69.081v-2.77h9.03v-2.16c3.545,1.108,6.924,1.995,10.248,2.769
		c0.443-1.107,1.496-2.492,2.327-3.268c-6.648-1.273-14.071-2.88-20.72-6.093c0.388-0.332,0.831-0.665,1.219-0.942l-3.101-1.716
		c-5.54,4.32-15.789,7.645-24.652,9.417c0.831,0.775,1.718,2.216,2.217,3.102c3.545-0.831,7.2-1.883,10.746-3.158v2.05h8.808v2.77
		H50.135v2.715h15.068v4.265H59.33l0.665-0.221c-0.277-0.997-1.108-2.492-1.883-3.601l-3.102,0.774
		c0.553,0.887,1.163,2.05,1.55,3.047H46.312v2.937h8.697c-2.88,3.324-8.254,6.149-13.24,7.755c0.831,0.665,1.718,1.718,2.16,2.494
		c1.108-0.444,2.216-0.942,3.324-1.44v1.552h5.762v2.88H43.82v2.658h9.196v6.37c-3.988,0.444-7.589,0.776-10.414,1.053l0.498,3.103
		c5.761-0.72,13.794-1.662,21.549-2.548v-2.824l-3.655,0.331c0.664-1.218,1.384-2.658,2.049-4.21l-2.771-0.774
		c-0.387,1.495-1.384,3.767-2.216,5.317l-1.828,0.222v-6.038h8.142v-2.659h-8.142v-2.88h5.374v-2.492
		c0.72,0.499,1.33,0.997,1.829,1.386l1.496-2.549c-1.717-1.385-4.986-3.322-7.867-4.819c0.276-0.333,0.554-0.665,0.831-0.998
		l-2.271-0.887h23.267h9.473L88.359,110.503L88.359,110.503z M61.547,121.251H49.139c2.161-1.163,4.099-2.494,5.816-3.933
		C57.171,118.426,59.664,119.92,61.547,121.251z M57.891,98.15c3.324-1.274,6.48-2.714,9.251-4.321
		c3.212,1.772,6.536,3.157,9.694,4.321H57.891z"/>
	<path fill="#FFFFFF" d="M86.42,123.799v-1.884c1.163,0.499,2.271,0.888,3.489,1.329c0.442-0.83,1.385-1.938,2.16-2.603
		c-4.154-1.108-8.087-2.659-11.411-4.931c0.387-0.388,0.774-0.775,1.108-1.218l-2.88-1.054c-2.991,3.27-8.476,6.094-13.683,7.7
		c0.831,0.609,1.662,1.663,2.105,2.438c1.053-0.388,2.16-0.774,3.157-1.219v1.44h6.26v3.047h-9.749v2.66h9.749v6.369H70.91
		l2.603-0.941c-0.388-1.275-1.273-3.269-2.271-4.709l-2.66,0.72c0.887,1.552,1.772,3.601,2.161,4.93h-4.487v2.992h25.427v-2.992
		h-5.983c0.831-1.496,1.829-3.214,2.659-4.93l-2.825-0.775c-0.666,1.661-1.884,3.988-2.88,5.706h-2.547v-6.369h10.469v-2.66H80.104
		v-3.047H86.42z M72.792,121.251c2.16-1.108,4.154-2.384,5.872-3.822c2.05,1.495,4.155,2.714,6.371,3.822H72.792z"/>
	<path fill="#FFFFFF" d="M124.642,124.685c6.15-1.496,12.464-3.768,17.174-6.482l-2.771-2.326l-0.886,0.222h-34.899v3.378h28.362
		c-3.434,1.386-7.533,2.549-11.245,3.325v3.322H98.108v3.602h22.269v6.314c0,0.775-0.276,0.997-1.329,1.053
		c-0.942,0.056-4.709,0.056-8.42-0.056c0.498,0.998,1.163,2.327,1.385,3.436c4.93,0,8.143,0,10.026-0.498
		c1.939-0.61,2.603-1.551,2.603-3.822v-6.426h22.492v-3.601h-22.492V124.685z"/>
	<path fill="#FFFFFF" d="M98.607,98.15h47.862v-3.602h-21.05c-0.61-1.606-1.553-3.655-2.438-5.206l-4.1,0.831
		c0.665,1.273,1.385,2.936,1.938,4.375H98.607V98.15z"/>
	<path fill="#FFFFFF" d="M139.931,112.774v-11.079h-34.344v11.079H139.931z M109.631,104.743h26.035v4.986h-26.035V104.743z"/>
	<path fill="#FFFFFF" d="M182.862,112.719h16.23v-3.878h-16.23v-8.42h17.506v-3.988h-33.017c0.887-1.884,1.772-3.878,2.548-5.817
		l-4.155-0.998c-2.604,7.424-7.256,14.569-12.464,19.112c1.052,0.553,2.77,1.938,3.544,2.604c2.992-2.882,5.929-6.649,8.42-10.915
		h13.461v8.419h-16.507v14.847h-9.085v3.987h25.593v12.686h4.155v-12.686h20.053v-3.985h-20.053L182.862,112.719L182.862,112.719z
		 M178.708,123.688h-12.407v-10.97h12.407V123.688z"/>
	<path fill="#FFFFFF" d="M238.259,112.719h16.231v-3.878h-16.231v-8.42h17.505v-3.988h-33.017c0.887-1.884,1.772-3.878,2.548-5.817
		l-4.156-0.998c-2.603,7.424-7.256,14.569-12.462,19.112c1.051,0.553,2.769,1.938,3.543,2.604c2.992-2.882,5.929-6.649,8.421-10.915
		h13.46v8.419h-16.506v14.847h-9.085v3.987h25.592v12.686h4.156v-12.686h20.052v-3.985h-20.052L238.259,112.719L238.259,112.719z
		 M234.102,123.688h-12.406v-10.97h12.406V123.688z"/>
	<path fill="#FFFFFF" d="M272.327,109.008c-1.994,2.992-3.768,5.319-4.653,6.26c-1.606,1.994-2.881,3.323-4.044,3.6
		c0.443,1.109,1.051,3.048,1.273,3.879c0.997-0.554,2.66-0.942,14.072-2.715c0.331,1.163,0.554,2.271,0.719,3.213l3.379-1.052
		c-0.554-2.937-2.104-7.756-3.602-11.523l-3.101,0.832c0.61,1.662,1.273,3.602,1.771,5.428l-8.364,1.165
		c4.543-5.041,8.92-11.523,12.574-17.893l-3.545-2.105c-1.163,2.494-2.715,5.097-4.155,7.423l-5.871,0.499
		c3.047-4.155,6.149-9.584,8.586-14.846l-3.768-1.605c-2.216,6.038-6.091,12.408-7.256,14.015c-1.163,1.662-2.104,2.825-3.047,3.047
		c0.387,0.998,1.053,2.88,1.274,3.712C265.347,109.948,266.509,109.673,272.327,109.008z"/>
	<path fill="#FFFFFF" d="M277.367,124.573c1.163,3.214,2.547,7.479,3.048,10.192l3.047-1.052c-0.498-2.714-1.939-6.869-3.213-10.026
		L277.367,124.573z"/>
	<path fill="#FFFFFF" d="M294.983,118.813l-2.493,2.548c3.878,1.662,8.643,4.432,11.189,6.427l2.494-2.826
		C303.625,123.023,298.862,120.419,294.983,118.813z"/>
	<path fill="#FFFFFF" d="M310.661,96.821l-2.494-1.496l-0.722,0.222h-12.241c0.941-1.717,1.716-3.49,2.438-5.152l-3.989-0.664
		c-1.994,5.041-5.704,11.3-11.246,15.953c0.832,0.555,2.16,1.717,2.826,2.604c1.938-1.717,3.655-3.601,5.263-5.539
		c1.605,2.658,3.489,5.207,5.65,7.589c-3.933,3.323-8.419,5.982-13.019,7.81c0.831,0.609,2.106,2.271,2.605,3.158
		c4.541-1.939,9.028-4.708,13.128-8.253c3.822,3.711,8.309,6.702,12.907,8.696c0.609-1.053,1.772-2.603,2.658-3.323
		c-4.543-1.717-9.029-4.487-12.851-7.921C305.342,106.682,308.556,102.084,310.661,96.821z M292.656,99.702l0.388-0.554h12.243
		c-1.607,3.213-3.822,6.094-6.426,8.753C296.424,105.353,294.262,102.582,292.656,99.702z"/>
	<path fill="#FFFFFF" d="M286.507,131.887c7.479,2.049,16.454,5.761,21.327,8.696l2.438-3.213
		c-4.985-2.715-14.015-6.427-21.326-8.42L286.507,131.887z"/>
	<path fill="#FFFFFF" d="M263.297,137.87c0.831,0.275,2.549,0.83,3.213,1.218c1.219-3.434,2.218-8.642,2.826-13.349l-3.38-0.61
		C265.401,129.559,264.572,134.49,263.297,137.87z"/>
	<path fill="#FFFFFF" d="M271.773,125.57c0.608,3.767,1.274,8.753,1.386,11.966l3.212-0.608c-0.165-3.27-0.83-8.144-1.551-11.967
		L271.773,125.57z"/>
	<path fill="#FFFFFF" d="M359.297,114.658V95.159h-15.233c0.941-1.439,1.882-3.157,2.714-4.764l-4.875-0.775
		c-0.554,1.551-1.495,3.711-2.438,5.54h-11.188v25.427c-2.604,0.221-4.931,0.389-7.036,0.499l0.443,3.765
		c7.589-0.608,17.948-1.439,28.473-2.381c-8.697,6.148-19.333,10.69-30.799,13.627c0.83,0.94,2.16,2.77,2.77,3.711
		c12.188-3.49,23.597-8.697,33.016-15.954v10.525c0,1.163-0.387,1.496-1.551,1.607c-1.219,0-5.43,0.055-9.749-0.111
		c0.662,1.162,1.327,3.103,1.495,4.321c5.649,0,9.25-0.111,11.3-0.832c1.994-0.663,2.659-2.05,2.659-4.929v-14.017
		c3.435-3.102,6.481-6.536,9.14-10.248l-3.878-1.939C363.009,110.503,361.238,112.663,359.297,114.658z M355.142,118.591
		c-7.755,0.61-15.787,1.22-22.768,1.718v-5.206h22.768V118.591z M355.142,111.944h-22.767v-4.819h22.768L355.142,111.944
		L355.142,111.944z M355.142,103.966h-22.767v-5.151h22.768L355.142,103.966L355.142,103.966z"/>
	<path fill="#FFFFFF" d="M424.719,116.43h-15.676v-6.592h12.463V92.334h-28.527v17.504h11.966v6.592h-16.01v3.769h16.01v20.163h4.1
		v-20.163h15.676L424.719,116.43L424.719,116.43z M396.855,106.183V96.046h20.552v10.137H396.855z"/>
	<path fill="#FFFFFF" d="M412.145,124.573c3.49,3.934,7.533,9.362,9.418,12.74l3.323-2.049c-1.994-3.324-6.038-8.476-9.583-12.409
		L412.145,124.573z"/>
	<path fill="#FFFFFF" d="M388.49,135.266c0.887,0.553,2.493,1.718,3.214,2.383c3.103-3.546,6.759-8.919,9.362-13.573l-3.656-1.162
		C395.082,127.177,391.648,132.052,388.49,135.266z"/>
	<path fill="#FFFFFF" d="M387.271,89.896c-3.156,8.365-8.475,16.564-13.959,21.827c0.721,0.94,1.883,3.102,2.327,3.988
		c1.938-1.995,3.933-4.321,5.761-6.87v31.354h3.934v-37.336c2.216-3.711,4.21-7.756,5.814-11.8L387.271,89.896z"/>
	<path fill="#FFFFFF" d="M470.531,129.393c0.609-1.495,1.052-3.156,1.385-4.819l-3.711-0.554
		c-1.219,5.983-4.156,10.692-8.643,13.628c0.887,0.664,2.216,1.993,2.771,2.714c2.769-1.993,5.04-4.653,6.703-7.865
		c3.267,2.271,6.701,5.095,8.584,7.035l2.437-2.771C478.01,134.601,474.021,131.608,470.531,129.393z"/>
	<path fill="#FFFFFF" d="M476.568,109.506H463.94v13.297h12.629L476.568,109.506L476.568,109.506z M473.246,119.811h-6.15v-7.258
		h6.15V119.811z"/>
	<path fill="#FFFFFF" d="M464.881,90.616l-3.989-1.273c-3.102,5.151-9.084,10.636-15.732,14.125
		c0.887,0.611,2.161,1.938,2.771,2.715c2.049-1.164,4.042-2.438,5.926-3.878v3.213h16.509v-3.324h-16.342
		c2.825-2.105,5.373-4.486,7.59-7.036c4.542,4.1,11.245,8.199,16.895,10.636c0.333-1.052,1.163-2.714,1.884-3.711
		c-5.651-1.994-12.575-5.761-16.73-9.639C464.106,91.835,464.493,91.226,464.881,90.616z"/>
	<path fill="#FFFFFF" d="M460.505,109.506h-12.408v13.297h12.408V109.506z M457.18,119.811h-5.928v-7.258h5.928V119.811z"/>
	<path fill="#FFFFFF" d="M445.99,119.699c0-3.379-0.886-7.367-4.654-11.909c1.774-4.433,3.657-9.916,5.208-14.404l-2.548-1.605
		l-0.609,0.221h-11.633v48.194h3.545V95.712h6.594c-0.999,3.711-2.55,8.531-4.044,12.464c3.655,4.376,4.598,8.199,4.598,11.189
		c0,1.719-0.334,3.214-1.11,3.823c-0.386,0.332-0.996,0.499-1.604,0.499c-0.887,0.055-1.829,0.055-3.102-0.057
		c0.663,1.054,0.997,2.604,1.052,3.657c1.108,0.056,2.437,0.056,3.489-0.055c1.053-0.167,2.05-0.499,2.77-1.054
		C445.382,125.072,445.99,122.691,445.99,119.699z"/>
	<path fill="#FFFFFF" d="M454.91,128.95c0.608-1.274,1.163-2.714,1.604-4.101l-3.711-0.774c-1.773,5.982-5.483,10.746-10.58,13.738
		c0.887,0.665,2.271,1.995,2.825,2.715c3.212-2.216,6.093-5.207,8.309-8.809c2.105,1.606,4.432,3.436,5.594,4.819l2.162-2.771
		C459.841,132.385,457.237,130.391,454.91,128.95z"/>
	<rect x="0" y="18.051" fill="#FFFFFF" width="10.466" height="129.309"/>
	<path fill="#FFFFFF" d="M517.252,54.143c-5.761-2.628-14.03-4.338-23.173-4.338h-0.048c-9.145,0-17.379,1.72-23.144,4.338
		c-5.87,2.665-8.673,6.093-8.557,8.725c-0.116,2.635,2.687,6.082,8.557,8.74c5.765,2.641,14.025,4.356,23.191,4.343
		c9.143,0.013,17.412-1.702,23.173-4.343c5.868-2.658,8.646-6.105,8.538-8.74C525.898,60.236,523.12,56.808,517.252,54.143z"/>
	<path fill="#FFFFFF" d="M522.633,74.523c-1.049,0.61-2.121,1.205-3.258,1.723c-6.654,3.029-15.522,4.803-25.296,4.813
		c-9.797-0.011-18.664-1.784-25.309-4.813c-1.146-0.519-2.225-1.114-3.254-1.723c-2.21,1.863-3.238,3.796-3.175,5.436
		c-0.049,1.177,0.525,2.521,1.653,3.888c4.503,4.643,6.26,4.063,9.65,5.605c2.829,1.299,3,1.756,9.312,2.676
		c3.458,0.577,7.196,0.897,11.123,0.886c9.143,0.017,17.412-1.703,23.173-4.343c0.129-0.049,0.244-0.118,0.37-0.185h-0.004
		c5.601-2.628,8.28-5.952,8.172-8.527C525.869,78.319,524.827,76.386,522.633,74.523z"/>
	<path fill="#FFFFFF" d="M522.633,108.679c-1.049,0.61-2.121,1.201-3.258,1.729c-6.654,3.02-15.522,4.794-25.296,4.796
		c-2.541,0-5.445-0.101-7.848-0.352c0.305,0.964-0.033,1.957,0,3.021c-0.067,3.3-0.761,5.585,0,8.463
		c3.388,0.526,4.003,0.851,7.848,0.839c9.143,0.013,17.412-1.699,23.173-4.35c5.868-2.656,8.646-6.085,8.538-8.722
		C525.869,112.488,524.827,110.54,522.633,108.679z"/>
	<path fill="#FFFFFF" d="M522.633,91.594c-1.049,0.622-2.121,1.195-3.271,1.719c-6.642,3.034-15.51,4.818-25.283,4.818
		c-2.541,0-5.45-0.128-7.848-0.354c0.305,0.962-0.033,1.947,0,3.016c-0.007,0.207,0.021,0.409,0,0.606c-0.007,0,0.009,0.007,0,0.007
		c-0.227,3.023,0.942,5.992,0,7.834v0.011c3.388,0.545,4.003,0.857,7.848,0.857c9.143,0,17.413-1.714,23.173-4.353
		c0.129-0.064,0.244-0.127,0.37-0.188c5.597-2.625,8.276-5.963,8.169-8.548C525.869,95.411,524.827,93.455,522.633,91.594z"/>
	<path fill="#FFFFFF" d="M511.973,32.331c8.837,0,16.027-7.189,16.027-16.026c0-8.834-7.19-16.022-16.027-16.022
		c-8.838,0-16.028,7.188-16.028,16.022C495.945,25.142,503.136,32.331,511.973,32.331z M511.973,5.123
		c6.17,0,11.188,5.016,11.188,11.182c0,6.167-5.018,11.185-11.188,11.185c-6.166,0-11.184-5.018-11.184-11.185
		C500.789,10.139,505.808,5.123,511.973,5.123z"/>
	<path fill="#FFFFFF" d="M509.491,23.315c0.442,0.188,0.943,0.331,1.488,0.423v1.831h3.172v-1.823
		c0.481-0.097,0.933-0.241,1.35-0.431c0.836-0.384,1.483-0.926,1.924-1.614c0.448-0.687,0.675-1.433,0.675-2.22
		c0-0.798-0.209-1.51-0.619-2.116c-0.413-0.611-1.049-1.116-1.894-1.501c-0.573-0.263-1.616-0.565-3.096-0.898
		c-1.778-0.404-2.405-0.721-2.62-0.917c-0.301-0.269-0.442-0.59-0.442-1.01c0-0.486,0.213-0.892,0.65-1.241
		c0.457-0.361,1.207-0.544,2.229-0.544c0.984,0,1.729,0.203,2.219,0.605c0.482,0.392,0.769,0.992,0.855,1.783l0.027,0.269
		l2.279-0.17v-0.275c-0.037-0.858-0.281-1.636-0.724-2.31c-0.453-0.687-1.099-1.21-1.924-1.555c-0.28-0.118-0.579-0.216-0.891-0.293
		V7.509h-3.172v1.68c-0.491,0.082-0.955,0.212-1.379,0.389c-0.809,0.334-1.431,0.832-1.851,1.48c-0.425,0.642-0.641,1.348-0.641,2.1
		c0,0.683,0.177,1.31,0.527,1.864c0.348,0.55,0.876,1.014,1.573,1.379c0.528,0.281,1.445,0.58,2.725,0.887
		c1.247,0.299,2.059,0.521,2.413,0.66c0.528,0.203,0.903,0.445,1.117,0.722c0.213,0.274,0.322,0.598,0.322,0.961
		c0,0.36-0.114,0.701-0.34,1.011c-0.227,0.317-0.584,0.57-1.062,0.751c-0.488,0.194-1.073,0.293-1.739,0.293
		c-0.736,0-1.409-0.13-2-0.386c-0.571-0.247-0.995-0.572-1.263-0.968c-0.27-0.407-0.446-0.935-0.521-1.574l-0.032-0.271
		l-2.247,0.198v0.264c0.024,0.97,0.296,1.853,0.806,2.622C507.893,22.343,508.6,22.93,509.491,23.315z"/>
	<path fill="#FFFFFF" d="M465.698,41.285c7.121,0,12.913-5.794,12.913-12.916c0-7.12-5.792-12.913-12.913-12.913
		c-7.122,0-12.917,5.792-12.917,12.913C452.781,35.491,458.576,41.285,465.698,41.285z M465.698,19.357
		c4.97,0,9.012,4.042,9.012,9.011c0,4.97-4.042,9.014-9.012,9.014s-9.012-4.044-9.012-9.014
		C456.687,23.399,460.729,19.357,465.698,19.357z"/>
	<path fill="#FFFFFF" d="M463.698,34.018c0.355,0.152,0.759,0.266,1.2,0.343v1.473h2.555v-1.471
		c0.384-0.075,0.748-0.191,1.087-0.346c0.671-0.309,1.195-0.746,1.554-1.3c0.358-0.555,0.539-1.157,0.539-1.79
		c0-0.645-0.168-1.218-0.497-1.705c-0.333-0.495-0.847-0.903-1.525-1.21c-0.452-0.208-1.293-0.452-2.496-0.724
		c-1.429-0.326-1.935-0.581-2.109-0.738c-0.241-0.216-0.359-0.482-0.359-0.813c0-0.391,0.172-0.718,0.526-1
		c0.365-0.292,0.969-0.439,1.794-0.439c0.794,0,1.396,0.164,1.791,0.487c0.389,0.32,0.621,0.803,0.687,1.438l0.025,0.216
		l1.835-0.138v-0.218c-0.03-0.693-0.225-1.321-0.581-1.863c-0.365-0.554-0.89-0.976-1.555-1.254
		c-0.222-0.095-0.463-0.174-0.716-0.237v-1.447h-2.555v1.353c-0.398,0.067-0.772,0.172-1.11,0.313
		c-0.655,0.269-1.157,0.67-1.492,1.194c-0.341,0.514-0.514,1.083-0.514,1.692c0,0.549,0.142,1.055,0.421,1.502
		c0.278,0.441,0.703,0.814,1.269,1.111c0.422,0.224,1.159,0.463,2.196,0.712c1.003,0.242,1.657,0.42,1.944,0.532
		c0.422,0.163,0.727,0.36,0.903,0.582c0.169,0.221,0.256,0.481,0.256,0.774c0,0.29-0.092,0.564-0.273,0.813
		c-0.186,0.257-0.474,0.461-0.855,0.607c-0.398,0.156-0.869,0.235-1.402,0.235c-0.599,0-1.141-0.104-1.608-0.31
		c-0.461-0.2-0.804-0.463-1.021-0.781c-0.22-0.328-0.36-0.755-0.416-1.272l-0.033-0.212l-1.806,0.159V30.5
		c0.019,0.777,0.236,1.488,0.649,2.111C462.408,33.234,462.978,33.707,463.698,34.018z"/>
</g>
</svg>
